<mxfile host="app.diagrams.net" modified="2023-09-18T07:48:52.469Z" agent="Mozilla/5.0 (Windows NT 10.0; WOW64) AppleWebKit/537.36 (KHTML, like Gecko) Chrome/86.0.4240.198 Safari/537.36" etag="ugnkGhPbihNDi3HBvKyd" version="21.7.5" type="github">
  <diagram name="第 1 页" id="IFbgtL162MuwlSrZjnvz">
    <mxGraphModel dx="1726" dy="420" grid="1" gridSize="10" guides="1" tooltips="1" connect="1" arrows="1" fold="1" page="1" pageScale="1" pageWidth="827" pageHeight="1169" math="0" shadow="0">
      <root>
        <mxCell id="0" />
        <mxCell id="1" parent="0" />
        <mxCell id="4uAaH67YOVnfgv-Pw1UR-1" value="" style="whiteSpace=wrap;html=1;aspect=fixed;" vertex="1" parent="1">
          <mxGeometry x="520" y="280" width="180" height="180" as="geometry" />
        </mxCell>
        <mxCell id="4uAaH67YOVnfgv-Pw1UR-2" value="笔端USB&lt;br&gt;type-c插座" style="whiteSpace=wrap;html=1;aspect=fixed;" vertex="1" parent="1">
          <mxGeometry x="520" y="327.5" width="80" height="80" as="geometry" />
        </mxCell>
        <mxCell id="4uAaH67YOVnfgv-Pw1UR-4" value="" style="whiteSpace=wrap;html=1;aspect=fixed;" vertex="1" parent="1">
          <mxGeometry x="240" y="280" width="180" height="180" as="geometry" />
        </mxCell>
        <mxCell id="4uAaH67YOVnfgv-Pw1UR-7" value="" style="rounded=0;whiteSpace=wrap;html=1;" vertex="1" parent="1">
          <mxGeometry x="240" y="320" width="40" height="97.5" as="geometry" />
        </mxCell>
        <mxCell id="4uAaH67YOVnfgv-Pw1UR-8" value="" style="rounded=0;whiteSpace=wrap;html=1;rotation=-90;" vertex="1" parent="1">
          <mxGeometry x="350" y="350" width="100" height="40" as="geometry" />
        </mxCell>
        <mxCell id="4uAaH67YOVnfgv-Pw1UR-9" value="接收端&lt;br&gt;type-c" style="text;html=1;align=center;verticalAlign=middle;resizable=0;points=[];autosize=1;strokeColor=none;fillColor=none;" vertex="1" parent="1">
          <mxGeometry x="370" y="347.5" width="60" height="40" as="geometry" />
        </mxCell>
        <mxCell id="4uAaH67YOVnfgv-Pw1UR-10" value="接收端&lt;br&gt;USB-A" style="text;html=1;align=center;verticalAlign=middle;resizable=0;points=[];autosize=1;strokeColor=none;fillColor=none;" vertex="1" parent="1">
          <mxGeometry x="230" y="350" width="60" height="40" as="geometry" />
        </mxCell>
        <mxCell id="4uAaH67YOVnfgv-Pw1UR-11" value="UART&lt;br&gt;IC" style="whiteSpace=wrap;html=1;aspect=fixed;" vertex="1" parent="1">
          <mxGeometry x="301.26" y="297.5" width="58.75" height="58.75" as="geometry" />
        </mxCell>
        <mxCell id="4uAaH67YOVnfgv-Pw1UR-12" value="Dongle端" style="text;html=1;align=center;verticalAlign=middle;resizable=0;points=[];autosize=1;strokeColor=none;fillColor=none;" vertex="1" parent="1">
          <mxGeometry x="295.63" y="250" width="70" height="30" as="geometry" />
        </mxCell>
        <mxCell id="4uAaH67YOVnfgv-Pw1UR-13" value="笔端" style="text;html=1;align=center;verticalAlign=middle;resizable=0;points=[];autosize=1;strokeColor=none;fillColor=none;" vertex="1" parent="1">
          <mxGeometry x="585" y="250" width="50" height="30" as="geometry" />
        </mxCell>
        <mxCell id="4uAaH67YOVnfgv-Pw1UR-14" value="" style="whiteSpace=wrap;html=1;aspect=fixed;" vertex="1" parent="1">
          <mxGeometry x="-20" y="280" width="180" height="180" as="geometry" />
        </mxCell>
        <mxCell id="4uAaH67YOVnfgv-Pw1UR-15" value="PC端" style="text;html=1;align=center;verticalAlign=middle;resizable=0;points=[];autosize=1;strokeColor=none;fillColor=none;" vertex="1" parent="1">
          <mxGeometry x="45" y="250" width="50" height="30" as="geometry" />
        </mxCell>
        <mxCell id="4uAaH67YOVnfgv-Pw1UR-16" value="USB-A" style="rounded=0;whiteSpace=wrap;html=1;" vertex="1" parent="1">
          <mxGeometry x="120" y="321.26" width="40" height="97.5" as="geometry" />
        </mxCell>
        <mxCell id="4uAaH67YOVnfgv-Pw1UR-18" value="" style="endArrow=classic;html=1;rounded=0;entryX=0;entryY=0.25;entryDx=0;entryDy=0;entryPerimeter=0;" edge="1" parent="1">
          <mxGeometry width="50" height="50" relative="1" as="geometry">
            <mxPoint x="160" y="350" as="sourcePoint" />
            <mxPoint x="230" y="350" as="targetPoint" />
          </mxGeometry>
        </mxCell>
        <mxCell id="4uAaH67YOVnfgv-Pw1UR-20" value="" style="endArrow=classic;html=1;rounded=0;entryX=0;entryY=0.25;entryDx=0;entryDy=0;entryPerimeter=0;" edge="1" parent="1">
          <mxGeometry width="50" height="50" relative="1" as="geometry">
            <mxPoint x="160" y="377.5" as="sourcePoint" />
            <mxPoint x="230" y="377.5" as="targetPoint" />
          </mxGeometry>
        </mxCell>
        <mxCell id="4uAaH67YOVnfgv-Pw1UR-21" value="" style="endArrow=classic;html=1;rounded=0;entryX=-0.038;entryY=0.248;entryDx=0;entryDy=0;entryPerimeter=0;" edge="1" parent="1" target="4uAaH67YOVnfgv-Pw1UR-2">
          <mxGeometry width="50" height="50" relative="1" as="geometry">
            <mxPoint x="420" y="347.5" as="sourcePoint" />
            <mxPoint x="490" y="347.5" as="targetPoint" />
          </mxGeometry>
        </mxCell>
        <mxCell id="4uAaH67YOVnfgv-Pw1UR-22" value="" style="endArrow=classic;html=1;rounded=0;entryX=-0.031;entryY=0.586;entryDx=0;entryDy=0;entryPerimeter=0;" edge="1" parent="1" target="4uAaH67YOVnfgv-Pw1UR-2">
          <mxGeometry width="50" height="50" relative="1" as="geometry">
            <mxPoint x="420" y="375" as="sourcePoint" />
            <mxPoint x="490" y="375" as="targetPoint" />
          </mxGeometry>
        </mxCell>
        <mxCell id="4uAaH67YOVnfgv-Pw1UR-23" value="D+" style="text;html=1;align=center;verticalAlign=middle;resizable=0;points=[];autosize=1;strokeColor=none;fillColor=none;" vertex="1" parent="1">
          <mxGeometry x="175" y="323.75" width="40" height="30" as="geometry" />
        </mxCell>
        <mxCell id="4uAaH67YOVnfgv-Pw1UR-24" value="D-" style="text;html=1;align=center;verticalAlign=middle;resizable=0;points=[];autosize=1;strokeColor=none;fillColor=none;" vertex="1" parent="1">
          <mxGeometry x="175" y="353.75" width="40" height="30" as="geometry" />
        </mxCell>
        <mxCell id="4uAaH67YOVnfgv-Pw1UR-25" value="TX" style="text;html=1;align=center;verticalAlign=middle;resizable=0;points=[];autosize=1;strokeColor=none;fillColor=none;" vertex="1" parent="1">
          <mxGeometry x="450" y="321.26" width="40" height="30" as="geometry" />
        </mxCell>
        <mxCell id="4uAaH67YOVnfgv-Pw1UR-26" value="RX" style="text;html=1;align=center;verticalAlign=middle;resizable=0;points=[];autosize=1;strokeColor=none;fillColor=none;" vertex="1" parent="1">
          <mxGeometry x="450" y="350" width="40" height="30" as="geometry" />
        </mxCell>
        <mxCell id="4uAaH67YOVnfgv-Pw1UR-27" value="" style="endArrow=classic;html=1;rounded=0;entryX=-0.038;entryY=0.248;entryDx=0;entryDy=0;entryPerimeter=0;" edge="1" parent="1">
          <mxGeometry width="50" height="50" relative="1" as="geometry">
            <mxPoint x="420" y="320.5" as="sourcePoint" />
            <mxPoint x="517" y="320" as="targetPoint" />
          </mxGeometry>
        </mxCell>
        <mxCell id="4uAaH67YOVnfgv-Pw1UR-28" value="" style="endArrow=classic;html=1;rounded=0;entryX=-0.031;entryY=0.586;entryDx=0;entryDy=0;entryPerimeter=0;" edge="1" parent="1">
          <mxGeometry width="50" height="50" relative="1" as="geometry">
            <mxPoint x="420" y="400.38" as="sourcePoint" />
            <mxPoint x="518" y="399.38" as="targetPoint" />
          </mxGeometry>
        </mxCell>
        <mxCell id="4uAaH67YOVnfgv-Pw1UR-29" value="VCC" style="text;html=1;align=center;verticalAlign=middle;resizable=0;points=[];autosize=1;strokeColor=none;fillColor=none;" vertex="1" parent="1">
          <mxGeometry x="445" y="297.5" width="50" height="30" as="geometry" />
        </mxCell>
        <mxCell id="4uAaH67YOVnfgv-Pw1UR-30" value="GND" style="text;html=1;align=center;verticalAlign=middle;resizable=0;points=[];autosize=1;strokeColor=none;fillColor=none;" vertex="1" parent="1">
          <mxGeometry x="445" y="377.5" width="50" height="30" as="geometry" />
        </mxCell>
        <mxCell id="4uAaH67YOVnfgv-Pw1UR-31" value="" style="endArrow=classic;html=1;rounded=0;" edge="1" parent="1">
          <mxGeometry width="50" height="50" relative="1" as="geometry">
            <mxPoint x="160" y="330" as="sourcePoint" />
            <mxPoint x="230" y="330" as="targetPoint" />
            <Array as="points">
              <mxPoint x="170" y="330" />
            </Array>
          </mxGeometry>
        </mxCell>
        <mxCell id="4uAaH67YOVnfgv-Pw1UR-32" value="" style="endArrow=classic;html=1;rounded=0;exitX=1.004;exitY=0.806;exitDx=0;exitDy=0;exitPerimeter=0;" edge="1" parent="1" source="4uAaH67YOVnfgv-Pw1UR-16">
          <mxGeometry width="50" height="50" relative="1" as="geometry">
            <mxPoint x="160.00000000000003" y="401.07" as="sourcePoint" />
            <mxPoint x="229" y="400" as="targetPoint" />
            <Array as="points" />
          </mxGeometry>
        </mxCell>
        <mxCell id="4uAaH67YOVnfgv-Pw1UR-33" value="USB-5V" style="text;html=1;align=center;verticalAlign=middle;resizable=0;points=[];autosize=1;strokeColor=none;fillColor=none;" vertex="1" parent="1">
          <mxGeometry x="160" y="310" width="70" height="30" as="geometry" />
        </mxCell>
        <mxCell id="4uAaH67YOVnfgv-Pw1UR-34" value="GND" style="text;html=1;align=center;verticalAlign=middle;resizable=0;points=[];autosize=1;strokeColor=none;fillColor=none;" vertex="1" parent="1">
          <mxGeometry x="170" y="377.5" width="50" height="30" as="geometry" />
        </mxCell>
        <mxCell id="4uAaH67YOVnfgv-Pw1UR-35" value="MCU" style="whiteSpace=wrap;html=1;aspect=fixed;" vertex="1" parent="1">
          <mxGeometry x="301.88" y="383.75" width="58.75" height="58.75" as="geometry" />
        </mxCell>
        <mxCell id="4uAaH67YOVnfgv-Pw1UR-36" value="" style="endArrow=classic;startArrow=classic;html=1;rounded=0;entryX=0.778;entryY=0.778;entryDx=0;entryDy=0;entryPerimeter=0;exitX=1;exitY=1;exitDx=0;exitDy=0;" edge="1" parent="1" source="4uAaH67YOVnfgv-Pw1UR-35" target="4uAaH67YOVnfgv-Pw1UR-4">
          <mxGeometry width="50" height="50" relative="1" as="geometry">
            <mxPoint x="360.01" y="442.5038461538462" as="sourcePoint" />
            <mxPoint x="400.01" y="436.35" as="targetPoint" />
          </mxGeometry>
        </mxCell>
        <mxCell id="4uAaH67YOVnfgv-Pw1UR-38" value="" style="endArrow=classic;startArrow=classic;html=1;rounded=0;entryX=0;entryY=1;entryDx=0;entryDy=0;" edge="1" parent="1" target="4uAaH67YOVnfgv-Pw1UR-35">
          <mxGeometry width="50" height="50" relative="1" as="geometry">
            <mxPoint x="280" y="417.50171728971964" as="sourcePoint" />
            <mxPoint x="318.6399999999999" y="382.13250000000005" as="targetPoint" />
          </mxGeometry>
        </mxCell>
        <mxCell id="4uAaH67YOVnfgv-Pw1UR-39" value="" style="endArrow=classic;html=1;rounded=0;" edge="1" parent="1">
          <mxGeometry width="50" height="50" relative="1" as="geometry">
            <mxPoint x="280" y="350" as="sourcePoint" />
            <mxPoint x="300" y="330" as="targetPoint" />
            <Array as="points">
              <mxPoint x="290" y="340" />
            </Array>
          </mxGeometry>
        </mxCell>
        <mxCell id="4uAaH67YOVnfgv-Pw1UR-41" value="" style="endArrow=classic;html=1;rounded=0;entryX=0.75;entryY=0;entryDx=0;entryDy=0;" edge="1" parent="1" target="4uAaH67YOVnfgv-Pw1UR-8">
          <mxGeometry width="50" height="50" relative="1" as="geometry">
            <mxPoint x="360" y="330" as="sourcePoint" />
            <mxPoint x="410" y="280" as="targetPoint" />
          </mxGeometry>
        </mxCell>
        <mxCell id="4uAaH67YOVnfgv-Pw1UR-42" value="&lt;span style=&quot;font-size:12.0pt;font-family:宋体;&#xa;mso-ascii-font-family:&amp;quot;Times New Roman&amp;quot;;mso-hansi-font-family:&amp;quot;Times New Roman&amp;quot;;&#xa;mso-bidi-font-family:&amp;quot;Times New Roman&amp;quot;;mso-font-kerning:1.0pt;mso-ansi-language:&#xa;EN-US;mso-fareast-language:ZH-CN;mso-bidi-language:AR-SA&quot;&gt;④&lt;/span&gt;" style="text;whiteSpace=wrap;html=1;" vertex="1" parent="1">
          <mxGeometry x="250" y="316.25" width="50" height="40" as="geometry" />
        </mxCell>
        <mxCell id="4uAaH67YOVnfgv-Pw1UR-43" value="&lt;span style=&quot;font-size:12.0pt;font-family:宋体;&#xa;mso-ascii-font-family:&amp;quot;Times New Roman&amp;quot;;mso-hansi-font-family:&amp;quot;Times New Roman&amp;quot;;&#xa;mso-bidi-font-family:&amp;quot;Times New Roman&amp;quot;;mso-font-kerning:1.0pt;mso-ansi-language:&#xa;EN-US;mso-fareast-language:ZH-CN;mso-bidi-language:AR-SA&quot;&gt;③&lt;/span&gt;" style="text;whiteSpace=wrap;html=1;" vertex="1" parent="1">
          <mxGeometry x="300" y="292.5" width="50" height="40" as="geometry" />
        </mxCell>
        <mxCell id="4uAaH67YOVnfgv-Pw1UR-44" value="&lt;span style=&quot;font-size:12.0pt;font-family:宋体;&#xa;mso-ascii-font-family:&amp;quot;Times New Roman&amp;quot;;mso-hansi-font-family:&amp;quot;Times New Roman&amp;quot;;&#xa;mso-bidi-font-family:&amp;quot;Times New Roman&amp;quot;;mso-font-kerning:1.0pt;mso-ansi-language:&#xa;EN-US;mso-fareast-language:ZH-CN;mso-bidi-language:AR-SA&quot;&gt;④&lt;/span&gt;" style="text;whiteSpace=wrap;html=1;" vertex="1" parent="1">
          <mxGeometry x="125" y="292.5" width="50" height="40" as="geometry" />
        </mxCell>
        <mxCell id="4uAaH67YOVnfgv-Pw1UR-45" value="&lt;span style=&quot;font-size:12.0pt;font-family:宋体;&#xa;mso-ascii-font-family:&amp;quot;Times New Roman&amp;quot;;mso-hansi-font-family:&amp;quot;Times New Roman&amp;quot;;&#xa;mso-bidi-font-family:&amp;quot;Times New Roman&amp;quot;;mso-font-kerning:1.0pt;mso-ansi-language:&#xa;EN-US;mso-fareast-language:ZH-CN;mso-bidi-language:AR-SA&quot;&gt;②&lt;/span&gt;" style="text;whiteSpace=wrap;html=1;" vertex="1" parent="1">
          <mxGeometry x="389" y="316.26" width="50" height="40" as="geometry" />
        </mxCell>
        <mxCell id="4uAaH67YOVnfgv-Pw1UR-46" value="&lt;span style=&quot;font-size:12.0pt;font-family:宋体;&#xa;mso-ascii-font-family:&amp;quot;Times New Roman&amp;quot;;mso-hansi-font-family:&amp;quot;Times New Roman&amp;quot;;&#xa;mso-bidi-font-family:&amp;quot;Times New Roman&amp;quot;;mso-font-kerning:1.0pt;mso-ansi-language:&#xa;EN-US;mso-fareast-language:ZH-CN;mso-bidi-language:AR-SA&quot;&gt;②&lt;/span&gt;" style="text;whiteSpace=wrap;html=1;" vertex="1" parent="1">
          <mxGeometry x="550" y="320" width="50" height="40" as="geometry" />
        </mxCell>
        <mxCell id="4uAaH67YOVnfgv-Pw1UR-47" value="笔端MCU" style="whiteSpace=wrap;html=1;aspect=fixed;" vertex="1" parent="1">
          <mxGeometry x="600" y="327.5" width="80" height="80" as="geometry" />
        </mxCell>
        <mxCell id="4uAaH67YOVnfgv-Pw1UR-48" value="&lt;span style=&quot;font-size:12.0pt;font-family:宋体;&#xa;mso-ascii-font-family:&amp;quot;Times New Roman&amp;quot;;mso-hansi-font-family:&amp;quot;Times New Roman&amp;quot;;&#xa;mso-bidi-font-family:&amp;quot;Times New Roman&amp;quot;;mso-font-kerning:1.0pt;mso-ansi-language:&#xa;EN-US;mso-fareast-language:ZH-CN;mso-bidi-language:AR-SA&quot;&gt;⑤&lt;/span&gt;" style="text;whiteSpace=wrap;html=1;" vertex="1" parent="1">
          <mxGeometry x="630" y="320" width="50" height="40" as="geometry" />
        </mxCell>
        <mxCell id="4uAaH67YOVnfgv-Pw1UR-49" value="&lt;span style=&quot;font-size:12.0pt;font-family:宋体;&#xa;mso-ascii-font-family:&amp;quot;Times New Roman&amp;quot;;mso-hansi-font-family:&amp;quot;Times New Roman&amp;quot;;&#xa;mso-bidi-font-family:&amp;quot;Times New Roman&amp;quot;;mso-font-kerning:1.0pt;mso-ansi-language:&#xa;EN-US;mso-fareast-language:ZH-CN;mso-bidi-language:AR-SA&quot;&gt;①&lt;/span&gt;" style="text;whiteSpace=wrap;html=1;" vertex="1" parent="1">
          <mxGeometry x="300" y="378.76" width="50" height="40" as="geometry" />
        </mxCell>
      </root>
    </mxGraphModel>
  </diagram>
</mxfile>
